<?xml version="1.0" encoding="utf-8"?>
<!-- Generator: Adobe Illustrator 19.0.0, SVG Export Plug-In . SVG Version: 6.00 Build 0)  -->
<svg version="1.1" id="Layer_1" xmlns="http://www.w3.org/2000/svg" xmlns:xlink="http://www.w3.org/1999/xlink" x="0px" y="0px"
	 viewBox="-274 486.7 650 229.3" style="enable-background:new -274 486.7 650 229.3;" xml:space="preserve">
<style type="text/css">
	.st0{fill:#FFFFFF;}
</style>
<g>
	<path class="st0" d="M-102.7,619.8c-3.2,3-4.8,7.5-4.8,13.3c0,6.7,2.5,12.3,7.5,16.6c4.3,3.7,9.5,5.8,15.6,6.3
		c9-12.7,14.9-27.8,16.5-44.2c-7.3,0.3-13.3,0.9-18,1.6C-93.8,614.6-99.5,616.8-102.7,619.8z"/>
	<path class="st0" d="M-113.3,649.7c-3.3-4.9-4.9-10.3-4.9-16.2c0-7.9,2.1-14,6.2-18.3s11-7.5,20.6-9.4c6.3-1.3,14.4-2.1,24-2.6
		c0-0.1,0-0.2,0-0.3c0-14-3.1-27.2-8.7-39c-5.7,0.2-10.9,1.1-15.4,2.7c-5.5,1.8-9.8,3.9-13,6.2c-0.6,0.4-1.8,1.3-3.6,2.6
		c-1.8,1.2-3.3,1.9-4.5,1.9c-1,0-1.9-0.4-2.8-1.2c-0.8-0.8-1.2-1.8-1.2-3c0-2.8,2.6-5.7,7.7-8.8c5.1-3.1,10.7-5.5,16.8-7
		c3.8-1,7.6-1.7,11.4-2.1c-16.1-26.5-45.3-44.3-78.7-44.3c-50.8,0-92,41.2-92,92s41.2,92,92,92c27.2,0,51.6-11.8,68.5-30.6
		c-3.1-0.7-6.1-1.7-9-3.1C-105.6,658.3-110,654.5-113.3,649.7z M-216.5,580.7c-1.6,0.7-3.1,0.7-4.5-0.3c-1.4-1.1-1.7-2.6-1.4-4.2
		c0.1-0.7,0.3-1.4,0.7-2.1c5.1-13.5,14.3-23.7,26.7-30.4c14-7,28.2-8.4,42.8-3.9c3,0.9,4.7,3.1,4.3,5.4c-0.4,2.3-2.9,3.9-6,3.7
		c-0.9-0.1-1.8-0.2-2.7-0.6c-23.1-6.7-46.9,5.1-55.7,27.5C-213.2,578-214.4,579.8-216.5,580.7z M-140,657.7c-7.2,5.4-16.8,8-28.9,8
		c-6.2-0.5-11.8-1.3-17.6-2.9c-5.7-1.7-10.8-4-15.4-6.9c-2.9-1.9-4.9-3.5-5.9-4.7s-1.6-2.7-1.6-4.2c0-1,0.3-1.9,1.1-2.8
		c0.8-0.8,1.6-1.2,2.7-1.2c0.8,0,1.7,0.4,3,1.2c1.2,0.8,2.1,1.3,2.6,1.7c4.2,3.1,8.7,5.6,13.3,7.6c4.6,2,10.5,3,17.5,3
		c9.5,0,16.8-1.8,22-5.2c5.1-3.6,7.7-8.5,7.7-14.9c0-3.8-0.9-6.9-2.8-9.5c-1.8-2.5-4.8-4.7-9-6.5c-4.1-1.8-10.1-3.6-17.8-5.4
		c-12.9-2.9-22.1-6.7-27.6-11.1c-5.6-4.6-8.4-10.6-8.4-17.9c0-9,3.6-16.5,10.6-22.2c7.1-5.7,16.3-8.6,27.5-8.6
		c5.5,0,10.6,0.8,15.6,2.2c5,1.4,9.4,3.6,13.2,6.1c2.8,2,4.8,3.8,6,5.4c1.2,1.6,1.9,3.1,1.9,4.7c0,1-0.3,1.9-1.1,2.8
		c-0.8,0.8-1.6,1.2-2.7,1.2c-1.2,0-3.1-1.1-5.7-3.3c-3.8-2.9-7.8-5.4-11.9-7.2c-4.1-1.9-9.4-2.9-15.7-2.9c-8.2,0-14.8,1.9-19.8,5.8
		c-5,3.9-7.6,8.9-7.6,15.3c0,3.8,0.8,6.9,2.5,9.4c1.6,2.5,4.3,4.5,8.2,6.2c3.9,1.7,9.4,3.5,16.6,5c10.1,2.5,17.8,5,23.3,7.6
		c5.5,2.6,9.3,5.7,11.5,9.3c2.2,3.6,3.5,8.1,3.5,13.7C-129.2,645.3-132.8,652.3-140,657.7z M-163.3,578.3
		c-7.6-2.1-14.6,1.6-17.7,8.8c-0.8,2-1.8,2.7-3.5,2.2c-1.8-0.3-2.8-1.8-2.8-3.8c0-1,0.2-2,0.8-2.9c1.6-4.1,4.9-7.4,10.5-10.3
		c4.1-2,8.9-2.3,13.3-0.8c1.6,0.6,2.8,1.3,3.2,3.1C-158.9,576.8-160.8,579-163.3,578.3z"/>
	<path class="st0" d="M-74,554.7c-2.2,0-4.5,0.1-6.7,0.4c1.7,2.8,3.3,5.7,4.7,8.7c1.1,0,2.2-0.1,3.3-0.1c8.9,0,15.5,2.3,19.6,7.1
		c4.1,4.8,6.2,12.3,6.2,22.7v9.3h-4.3c-5.8,0-11.2,0.1-16.1,0.3c0,2.9-0.2,5.8-0.4,8.7c5.1-0.2,10.8-0.3,17.1-0.3h4.1v7.9
		c0,7-1.5,13.2-4.5,18.8c-3,5.5-7.2,9.9-12.4,13c-5.4,3.3-11.2,4.8-17.7,5c-1.1,0-2.1-0.1-3.2-0.2c-2,2.9-4.2,5.6-6.5,8.2
		c3,0.7,6.2,1,9.5,1c7.7,0,14.7-1.8,20.7-5.5s10.7-8.9,13.9-15.6v15.4c0,1.5,0.4,2.6,1.3,3.6c0.9,1,2.2,1.4,3.6,1.4
		c1.6,0,2.7-0.4,3.5-1.3c0.8-0.8,1.2-2.1,1.2-3.7v-65.4C-37.2,567.8-49.4,554.7-74,554.7z"/>
	<path class="st0" d="M-16.7,507.8c-1.6,0-2.7,0.4-3.5,1.3c-0.8,0.8-1.2,2.1-1.2,3.7v147c0,1.6,0.4,2.8,1.2,3.7
		c0.7,0.8,1.8,1.4,3.5,1.1c1.3,0,2.4-0.4,3.3-1.4c0.9-0.9,1.3-2.2,1.3-3.6V512.8c0-1.5-0.4-2.6-1.3-3.6
		C-14.2,508.2-15.5,507.8-16.7,507.8z"/>
	<path class="st0" d="M89.9,609.8c1-1.1,1.6-3,1.6-5.7c0-15.3-3.8-27.2-11.6-36c-7.7-8.9-18.3-13.2-31.8-13.2
		c-9.5,0-18.1,2.3-25.6,6.9c-7.5,4.6-13.3,11-17.4,19.4C1,589.6-1,599.3-1,610.2c0,17,4.5,30.4,13.6,40.2
		c9.2,9.8,21.8,14.7,37.7,14.7c11.3,0,22.1-3.3,32.7-9.5c2.8-1.7,4.7-3.4,5.8-4.7c1.1-1.3,1.7-2.8,1.7-4.2c0-1.1-0.3-2-1.1-2.8
		c-0.6-0.5-1.6-1.2-2.8-1.1c-0.9,0-2.8,1.1-5.9,3.1c-4.4,3.2-8.9,5.6-13.5,7.5c-4.7,1.9-10.5,2.9-17.5,2.9c-12.9,0-22.9-3.8-30-11.6
		C12.8,637,9,626,9,611.6h75.5C86.9,611.6,88.9,611,89.9,609.8z M9.4,602.8c1.1-12.5,5.1-22.2,11.9-29.1c6.8-7,15.7-10.5,27-10.5
		c10.8,0,19.2,3.5,25.2,10.3s9.2,16.6,9.5,29.3H9.4z"/>
	<path class="st0" d="M193.7,609.8c1-1.1,1.6-3,1.6-5.7c0-15.3-3.8-27.2-11.6-36c-7.7-8.9-18.3-13.2-31.8-13.2
		c-9.6,0-18.3,2.2-25.8,6.8s-13.3,11-17.4,19.4c-4.1,8.4-6.1,18.1-6.1,28.9c0,17.1,4.6,30.6,13.7,40.4c9.2,9.8,21.8,14.7,37.7,14.7
		c11.3,0,22.1-3.3,32.7-9.5c2.8-1.7,4.7-3.4,5.8-4.7s1.7-2.8,1.7-4.2c0-1.1-0.3-2-1.1-2.8c-0.7-0.5-1.7-1.1-2.7-1.2
		c-0.9,0-2.8,1.1-5.9,3.1c-4.4,3.2-8.9,5.6-13.5,7.5c-4.7,1.9-10.5,2.9-17.5,2.9c-12.9,0-22.9-3.8-30-11.6
		c-7-7.7-10.7-18.7-10.8-33.1h75.5C190.9,611.5,192.7,611,193.7,609.8z M113.2,602.8c1.1-12.5,5.1-22.2,11.9-29.1
		c6.8-7,15.7-10.5,27-10.5c10.8,0,19.2,3.5,25.2,10.3s9.2,16.6,9.5,29.3H113.2z"/>
	<path class="st0" d="M317.7,555c-8.2,0-15.5,1.9-21.7,5.7s-10.9,9-13.8,15.6c-4.8-14.2-15.8-21.3-32.9-21.3
		c-7.9,0-14.7,1.8-20.6,5.5c-5.8,3.6-10.1,8.9-13,15.8v-15.8c0-1.6-0.3-2.8-1.1-3.7c-0.7-0.9-1.9-1.3-3.3-1.3c-3,0-4.6,1.7-4.6,5
		v99.6c0,1.5,0.4,2.6,1.2,3.6c0.9,1,2.1,1.4,3.5,1.4c1.6,0,2.7-0.4,3.5-1.4c0.8-0.9,1.2-2.2,1.2-3.6v-58c0-11.7,3-21,9-27.9
		s14.2-10.4,24.6-10.4c8.9,0,15.4,2.6,19.5,7.8c4.1,5.2,6.1,13.5,6.1,24.9V660c0,1.5,0.4,2.6,1.2,3.6c0.9,1,2.1,1.4,3.5,1.4
		c1.6,0,2.7-0.4,3.5-1.4c0.8-0.9,1.2-2.2,1.2-3.6v-58c0-11.7,3.1-21,9.1-27.9c6.1-6.9,14.2-10.4,24.5-10.4c8.9,0,15.4,2.6,19.5,7.8
		s6.1,13.5,6.1,24.9v63.3c0,1.5,0.4,2.6,1.2,3.6c0.9,1,2.1,1.4,3.5,1.4c1.6,0,2.7-0.4,3.5-1.4c0.8-0.9,1.2-2.2,1.2-3.6v-64.4
		C353.3,568.1,341.5,554.7,317.7,555z"/>
</g>
</svg>
