<?xml version="1.0" encoding="utf-8"?>
<!-- Generator: Adobe Illustrator 21.1.0, SVG Export Plug-In . SVG Version: 6.00 Build 0)  -->
<svg version="1.1" id="Layer_1" xmlns="http://www.w3.org/2000/svg" xmlns:xlink="http://www.w3.org/1999/xlink" x="0px" y="0px"
	 viewBox="0 0 354 180" style="enable-background:new 0 0 354 180;" xml:space="preserve">
<style type="text/css">
	.st0{fill:#001F5B;}
	.st1{fill:#1E2957;}
	.st2{fill:#DD7161;}
	.st3{fill:#B13729;}
	.st4{fill:#C33A32;}
	.st5{fill:#982F20;}
	.st6{fill:#6C1A0F;}
</style>
<g>
	<g>
		<path class="st0" d="M177.7,149.9c-0.2,0-0.4-0.2-0.4-0.4v-38.7c0-0.2,0.2-0.4,0.4-0.4c0.2,0,0.4,0.2,0.4,0.4v38.7
			C178.2,149.7,178,149.9,177.7,149.9z"/>
	</g>
	<g>
		<path class="st0" d="M196.6,127.3l-3.2-4.8H191v4.8h-1.5v-12.6h4.5c2.9,0,4.2,1.7,4.2,3.9c0,2.2-1.2,3.4-3,3.8l0,0l3.4,4.9H196.6z
			 M191,121.1h2.5c2.1,0,3-1.1,3-2.5c0-1.6-1-2.5-2.8-2.5H191V121.1z"/>
		<path class="st0" d="M208.2,123.4L208.2,123.4l-6.7,0c0.2,1.6,1.3,2.7,2.9,2.7c1.1,0,1.9-0.5,2.4-1.2l1,0.9
			c-0.7,1-1.9,1.6-3.5,1.6c-2.5,0-4.3-1.8-4.3-4.4c0-2.6,1.8-4.4,4.1-4.4c2.4,0,4,1.8,4,4.3C208.2,123,208.2,123.3,208.2,123.4z
			 M201.6,122.2h5.2c-0.2-1.4-1.1-2.4-2.5-2.4C202.9,119.9,201.9,120.8,201.6,122.2z"/>
		<path class="st0" d="M217.6,118.6l-4.9,12.2h-1.5l1.5-3.9l-3.7-8.3h1.5l2.8,6.6h0l2.6-6.6H217.6z"/>
		<path class="st0" d="M227.2,118.6v8.7h-1.4v-1.4h0c-0.7,0.9-1.8,1.5-3,1.5c-2.4,0-4.2-1.7-4.2-4.4c0-2.6,1.8-4.5,4.2-4.5
			c1.2,0,2.2,0.5,3,1.4h0v-1.3H227.2z M225.8,123c0-1.8-1.2-3.2-2.9-3.2c-1.6,0-2.9,1.3-2.9,3.2c0,1.7,1.2,3.1,2.9,3.1
			C224.4,126.1,225.8,124.9,225.8,123z"/>
		<path class="st0" d="M237.9,114.2v13.1h-1.4v-1.4h0c-0.7,0.9-1.7,1.5-3,1.5c-2.4,0-4.2-1.7-4.2-4.4c0-2.6,1.8-4.5,4.2-4.5
			c1.2,0,2.2,0.5,2.9,1.4h0v-5.7H237.9z M236.5,123c0-1.8-1.2-3.2-2.9-3.2c-1.6,0-2.9,1.2-2.9,3.2c0,1.7,1.2,3.1,2.9,3.1
			C235.2,126.1,236.5,124.9,236.5,123z"/>
		<path class="st0" d="M248.9,118.6v8.7h-1.4v-1.4h0c-0.7,0.9-1.8,1.5-3,1.5c-2.4,0-4.2-1.7-4.2-4.4c0-2.6,1.8-4.5,4.2-4.5
			c1.2,0,2.2,0.5,3,1.4h0v-1.3H248.9z M247.5,123c0-1.8-1.2-3.2-2.9-3.2c-1.7,0-2.9,1.3-2.9,3.2c0,1.7,1.2,3.1,2.9,3.1
			C246.1,126.1,247.5,124.9,247.5,123z"/>
		<path class="st0" d="M259.3,122.1v5.2h-1.4v-4.8c0-2-0.9-2.7-2.1-2.7c-1.7,0-2.8,1.1-2.8,3.1v4.4h-1.4v-13.1h1.4v5.8h0
			c0.7-1,1.9-1.5,3.2-1.5C258,118.5,259.3,119.6,259.3,122.1z"/>
		<path class="st0" d="M267,114.7h7.7v1.4h-6.2v4.2h5.1v1.4h-5.1v4.1h6.5v1.4H267V114.7z"/>
		<path class="st0" d="M277.6,114.2h1.4v13.1h-1.4V114.2z"/>
		<path class="st0" d="M289.5,123.4L289.5,123.4l-6.7,0c0.2,1.6,1.3,2.7,2.9,2.7c1.1,0,1.9-0.5,2.4-1.2l1,0.9
			c-0.7,1-1.9,1.6-3.5,1.6c-2.5,0-4.3-1.8-4.3-4.4c0-2.6,1.8-4.4,4.1-4.4c2.4,0,4,1.8,4,4.3C289.5,123,289.5,123.3,289.5,123.4z
			 M282.9,122.2h5.2c-0.2-1.4-1.1-2.4-2.5-2.4C284.2,119.9,283.1,120.8,282.9,122.2z"/>
		<path class="st0" d="M291.2,123c0-2.6,1.8-4.5,4.3-4.5c1.3,0,2.6,0.5,3.5,1.5l-1,0.9c-0.5-0.6-1.4-1.1-2.4-1.1
			c-1.7,0-2.9,1.3-2.9,3.1c0,1.8,1.2,3.1,2.9,3.1c1,0,1.9-0.4,2.5-1l1,0.9c-0.7,0.8-2,1.5-3.6,1.5C293,127.4,291.2,125.6,291.2,123z
			"/>
		<path class="st0" d="M301.2,124.7v-4.8h-1.1v-1.3h1.1v-3l1.4-0.2v3.1h2.9v1.3h-2.9v4.6c0,1,0.2,1.6,1.1,1.6c0.5,0,1.1-0.2,1.5-0.4
			l0.4,1.3c-0.5,0.3-1.1,0.5-2.1,0.5C301.9,127.4,301.2,126.5,301.2,124.7z"/>
		<path class="st0" d="M311.8,118.5c0.1,0,0.3,0,0.4,0v1.6c-0.2,0-0.4,0-0.6,0c-1.6,0-2.6,1.3-2.6,3v4.2h-1.4v-8.7h1.4v1.5h0
			C309.6,119.1,310.6,118.5,311.8,118.5L311.8,118.5z"/>
		<path class="st0" d="M313,123c0-2.5,1.8-4.4,4.5-4.4c2.6,0,4.5,1.8,4.5,4.4c0,2.6-1.9,4.4-4.5,4.4C314.8,127.4,313,125.5,313,123z
			 M320.5,123c0-1.8-1.3-3.1-3-3.1c-1.8,0-3,1.4-3,3.1c0,1.7,1.2,3.1,3,3.1C319.2,126.1,320.5,124.8,320.5,123z"/>
		<path class="st0" d="M331.9,122.2v5.1h-1.4v-4.7c0-2-0.8-2.7-2.1-2.7c-1.6,0-2.7,1.2-2.7,3.1v4.3h-1.4v-8.7h1.4v1.5h0
			c0.7-1,1.9-1.6,3.1-1.6C330.7,118.5,331.9,119.7,331.9,122.2z"/>
		<path class="st0" d="M334.4,116c0-0.6,0.4-1,1-1c0.6,0,1,0.5,1,1c0,0.6-0.5,1-1,1C334.8,117,334.4,116.6,334.4,116z M334.6,118.6
			h1.4v8.7h-1.4V118.6z"/>
		<path class="st0" d="M338.4,123c0-2.6,1.8-4.5,4.3-4.5c1.3,0,2.6,0.5,3.5,1.5l-1,0.9c-0.5-0.6-1.4-1.1-2.4-1.1
			c-1.7,0-2.9,1.3-2.9,3.1c0,1.8,1.2,3.1,2.9,3.1c1,0,1.9-0.4,2.5-1l1,0.9c-0.7,0.8-2,1.5-3.6,1.5
			C340.2,127.4,338.4,125.6,338.4,123z"/>
		<path class="st0" d="M347.5,126.2l0.7-1.1c0.7,0.6,1.4,1,2.6,1c1,0,1.6-0.5,1.6-1.2c0-0.7-0.8-1-2.1-1.4c-1.4-0.5-2.6-1.1-2.6-2.7
			c0-1.3,1.2-2.3,2.9-2.3c1,0,2,0.3,3,1.1l-0.7,1.1c-0.8-0.7-1.6-0.9-2.3-0.9c-0.7,0-1.3,0.4-1.3,1c0,0.7,0.7,1,1.6,1.4
			c1.8,0.7,3,1,3,2.7c0,1.4-1,2.5-3.1,2.5C349.5,127.4,348.4,126.9,347.5,126.2z"/>
		<path class="st0" d="M201.9,133.3V146h-1.5v-9.7h0l-4.1,7.1h-1l-4.1-7.1h0v9.7h-1.5v-12.6h1.6l4.6,8.2h0.1l4.6-8.2H201.9z"/>
		<path class="st0" d="M213.1,137.3v8.7h-1.4v-1.4h0c-0.7,0.9-1.8,1.5-3,1.5c-2.4,0-4.2-1.7-4.2-4.4c0-2.6,1.8-4.5,4.2-4.5
			c1.2,0,2.2,0.5,3,1.4h0v-1.3H213.1z M211.7,141.7c0-1.8-1.2-3.2-2.9-3.2c-1.7,0-2.9,1.3-2.9,3.2c0,1.7,1.2,3.1,2.9,3.1
			C210.3,144.7,211.7,143.5,211.7,141.7z"/>
		<path class="st0" d="M223.4,140.8v5.1H222v-4.7c0-2-0.8-2.7-2.1-2.7c-1.6,0-2.7,1.2-2.7,3.1v4.3h-1.4v-8.7h1.4v1.5h0
			c0.7-1,1.9-1.6,3.1-1.6C222.2,137.2,223.4,138.3,223.4,140.8z"/>
		<path class="st0" d="M233.4,137.3v8.7H232v-1.4h0c-0.7,1-1.7,1.5-2.8,1.5c-2,0-3.3-1.1-3.3-3.6v-5.2h1.4v4.7c0,2,0.7,2.7,2.1,2.7
			c1.4,0,2.6-1.2,2.6-3.3v-4.2H233.4z"/>
		<path class="st0" d="M236.5,138.5h-1.1v-1.3h1.1v-1.8c0-1.9,0.9-2.8,2.4-2.8c0.9,0,1.5,0.3,2,0.5l-0.3,1.2c-0.5-0.3-1-0.4-1.5-0.4
			c-0.7,0-1.2,0.4-1.2,1.6v1.6h2.5v1.3h-2.5v7.4h-1.4V138.5z"/>
		<path class="st0" d="M250,137.3v8.7h-1.4v-1.4h0c-0.7,0.9-1.8,1.5-3,1.5c-2.4,0-4.2-1.7-4.2-4.4c0-2.6,1.8-4.5,4.2-4.5
			c1.2,0,2.2,0.5,3,1.4h0v-1.3H250z M248.6,141.7c0-1.8-1.2-3.2-2.9-3.2c-1.7,0-2.9,1.3-2.9,3.2c0,1.7,1.2,3.1,2.9,3.1
			C247.3,144.7,248.6,143.5,248.6,141.7z"/>
		<path class="st0" d="M252.1,141.6c0-2.6,1.8-4.5,4.3-4.5c1.3,0,2.6,0.5,3.5,1.5l-1,0.9c-0.5-0.6-1.4-1.1-2.4-1.1
			c-1.7,0-2.9,1.3-2.9,3.1c0,1.8,1.2,3.1,2.9,3.1c1,0,1.9-0.4,2.5-1l1,0.9c-0.7,0.8-2,1.5-3.6,1.5
			C253.9,146.1,252.1,144.3,252.1,141.6z"/>
		<path class="st0" d="M262.2,143.4v-4.8h-1.1v-1.3h1.1v-3l1.4-0.2v3.1h2.9v1.3h-2.9v4.6c0,1,0.2,1.6,1.1,1.6c0.5,0,1.1-0.2,1.5-0.4
			l0.4,1.3c-0.5,0.3-1.1,0.5-2.1,0.5C262.9,146.1,262.2,145.1,262.2,143.4z"/>
		<path class="st0" d="M275.8,137.3v8.7h-1.4v-1.4h0c-0.7,1-1.7,1.5-2.8,1.5c-2,0-3.2-1.1-3.2-3.6v-5.2h1.4v4.7c0,2,0.7,2.7,2.1,2.7
			c1.4,0,2.6-1.2,2.6-3.3v-4.2H275.8z"/>
		<path class="st0" d="M283.1,137.2v1.6c-0.2,0-0.4,0-0.6,0c-1.6,0-2.6,1.3-2.6,3v4.2h-1.4v-8.7h1.4v1.5h0c0.6-1,1.6-1.6,2.8-1.6
			C282.9,137.2,283,137.2,283.1,137.2z"/>
		<path class="st0" d="M284.7,134.7c0-0.6,0.4-1,1-1c0.6,0,1,0.5,1,1c0,0.6-0.5,1-1,1C285.1,135.7,284.7,135.2,284.7,134.7z
			 M285,137.3h1.4v8.7H285V137.3z"/>
		<path class="st0" d="M297,140.8v5.1h-1.4v-4.7c0-2-0.8-2.7-2.1-2.7c-1.6,0-2.7,1.2-2.7,3.1v4.3h-1.4v-8.7h1.4v1.5h0
			c0.7-1,1.9-1.6,3.1-1.6C295.8,137.2,297,138.3,297,140.8z"/>
		<path class="st0" d="M307.6,137.3v8c0,2.5-1.2,4.3-4.3,4.3c-1.3,0-2.5-0.3-3.5-0.9l0.3-1.3c1,0.6,1.9,0.9,3.1,0.9
			c2,0,2.9-1.1,2.9-2.5v-1.2h0c-0.7,0.8-1.7,1.3-2.9,1.3c-2.3,0-4.2-1.7-4.2-4.3c0-2.4,1.8-4.3,4.1-4.3c1.2,0,2.2,0.5,3,1.3h0v-1.2
			H307.6z M306.3,141.4c0-1.7-1.3-2.9-2.9-2.9c-1.7,0-2.8,1.3-2.8,2.9c0,1.8,1.3,3,2.8,3C305.1,144.4,306.3,143.2,306.3,141.4z"/>
	</g>
	<g>
		<g>
			<path class="st1" d="M107.4,129c1.9-2.3,2.8-5.1,2.6-8.4c-0.4-5.1-4.6-10.3-13.2-10.3c-5,0-9.2,1.7-12.3,5.1
				c-4.1,4.4-6.2,11.5-5.7,19c0.7,9.7,6.5,15.5,15.7,15.5c4.7,0,9-1.5,13.1-4.6c0.9-0.7,1.1-2,0.5-2.8l-2.7-3.7
				c-0.6-0.9-1.9-1-2.8-0.3c-2.6,2-4.9,2.8-7.7,2.8c-3.5,0-5.4-1.6-6.2-5.2C96.1,135.2,103.6,133.5,107.4,129z M88.7,127.8
				c1.2-7.9,5.5-9.2,8.1-9.2c3,0,3.4,2,3.5,2.6c0.1,1.6-0.4,2.4-0.8,2.9C97.6,126.3,92.9,127.3,88.7,127.8z"/>
			<path class="st1" d="M166.3,118.5c0.2-4.6-3.2-8.3-7.8-8.3c-4.8,0-9.2,2-12.4,5.2c-1-3-3.9-5.2-7.4-5.2c-4.4,0-8.6,1.7-11.8,4.5
				l0.1-2.1c0.1-1.4-0.9-2.5-2.3-2.5c0,0,0,0,0,0c-3.4,0-6.7,0.9-9.6,2.4c1.1,1.3,1.8,3.1,1.6,5.1l-2,29.7c-0.1,1.4,0.9,2.5,2.3,2.5
				h5c1.4,0,2.6-1.1,2.6-2.5l1.7-25.1c1.5-2,3.8-3.3,6.4-3.3c2,0,3.6,1.6,3.5,3.7l0,0l-1.7,24.8c-0.1,1.4,0.9,2.5,2.3,2.5h5
				c1.4,0,2.6-1.1,2.7-2.5l1.7-25.1c1.5-2,3.8-3.3,6.4-3.3c2,0,3.6,1.6,3.5,3.7v0l-1.7,24.8c-0.1,1.4,0.9,2.5,2.3,2.5h5
				c1.4,0,2.6-1.1,2.6-2.5L166.3,118.5C166.3,118.5,166.3,118.5,166.3,118.5z"/>
			<path class="st1" d="M77.7,113.6c-0.2-4.7-6.1-4.9-12.8,2.4l0.2-3.2c0.1-1.4-0.9-2.5-2.3-2.5l0,0c-3.4,0-6.7,0.9-9.6,2.4
				c1.1,1.3,1.8,3.1,1.6,5.1l-2,29.7c-0.1,1.4,0.9,2.5,2.3,2.5h5c1.4,0,2.6-1.1,2.6-2.5l1.5-22.3c3.3-3.8,7.5-6.9,10.3-3.5
				C74.6,121.6,77.9,118.6,77.7,113.6z"/>
		</g>
		<g>
			<path class="st2" d="M33,70l1.1-16.1c-10.8,3.6-21.6,6.5-32.1,4l-2.2,32.2c6.5,1.6,13.1,1,19.9-0.5l1.1-16.1
				C24.9,72.7,29,71.4,33,70z"/>
			<path class="st3" d="M56.4,79.1c-2.7,0.4-5.4,1.1-8.1,1.8l-1.7,24.2v0c5.4-1.5,10.8-2.5,16.1-2.5L56.4,79.1z"/>
			<path class="st2" d="M41.4,51.5c0.3-0.1,0.5-0.2,0.8-0.3c0.6-0.2,1.2-0.4,1.8-0.6c0.1,0,0.3-0.1,0.4-0.1c0.8-0.2,1.5-0.5,2.3-0.7
				c0.1,0,0.3-0.1,0.4-0.1c0.7-0.2,1.5-0.5,2.2-0.7c0,0,0.1,0,0.1,0c0.8-0.2,1.5-0.4,2.3-0.6c0.2,0,0.3-0.1,0.5-0.1
				c0.8-0.2,1.5-0.4,2.3-0.6c0.2,0,0.5-0.1,0.7-0.1c7.5-0.7,10.7,7.7,10.2,14.8l2.2-32.2c-10.6,0-21.6,4.2-32.4,7.8l-1.1,16.1
				c2.2-0.7,4.3-1.4,6.5-2.2C40.9,51.7,41.1,51.6,41.4,51.5z"/>
			<path class="st4" d="M46.7,49.8c-0.8,0.2-1.5,0.5-2.3,0.7C45.2,50.3,45.9,50,46.7,49.8z"/>
			<path class="st4" d="M46.7,49.8c-0.8,0.2-1.5,0.5-2.3,0.7C45.2,50.3,45.9,50,46.7,49.8z"/>
			<path class="st4" d="M41.4,51.5c-0.3,0.1-0.5,0.2-0.8,0.3C40.9,51.7,41.1,51.6,41.4,51.5z"/>
			<path class="st4" d="M41.4,51.5c-0.3,0.1-0.5,0.2-0.8,0.3C40.9,51.7,41.1,51.6,41.4,51.5z"/>
			<path class="st4" d="M44,50.7c-0.6,0.2-1.2,0.4-1.8,0.6C42.8,51,43.4,50.8,44,50.7z"/>
			<path class="st4" d="M44,50.7c-0.6,0.2-1.2,0.4-1.8,0.6C42.8,51,43.4,50.8,44,50.7z"/>
			<path class="st4" d="M55.2,47.6c-0.2,0-0.5,0.1-0.7,0.1C54.8,47.6,55,47.6,55.2,47.6z"/>
			<path class="st4" d="M55.2,47.6c-0.2,0-0.5,0.1-0.7,0.1C54.8,47.6,55,47.6,55.2,47.6z"/>
			<path class="st4" d="M54.5,47.7c-0.8,0.2-1.5,0.4-2.3,0.6C53,48,53.7,47.8,54.5,47.7z"/>
			<path class="st4" d="M54.5,47.7c-0.8,0.2-1.5,0.4-2.3,0.6C53,48,53.7,47.8,54.5,47.7z"/>
			<path class="st4" d="M47.1,49.7c-0.1,0-0.3,0.1-0.4,0.1C46.8,49.8,47,49.7,47.1,49.7z"/>
			<path class="st4" d="M47.1,49.7c-0.1,0-0.3,0.1-0.4,0.1C46.8,49.8,47,49.7,47.1,49.7z"/>
			<path class="st4" d="M42.2,51.2c-0.3,0.1-0.5,0.2-0.8,0.3C41.7,51.4,41.9,51.3,42.2,51.2z"/>
			<path class="st4" d="M42.2,51.2c-0.3,0.1-0.5,0.2-0.8,0.3C41.7,51.4,41.9,51.3,42.2,51.2z"/>
			<path class="st4" d="M44.4,50.5c-0.1,0.1-0.3,0.1-0.4,0.1C44.1,50.6,44.3,50.6,44.4,50.5z"/>
			<path class="st4" d="M44.4,50.5c-0.1,0.1-0.3,0.1-0.4,0.1C44.1,50.6,44.3,50.6,44.4,50.5z"/>
			<path class="st4" d="M52.2,48.2c-0.2,0-0.3,0.1-0.5,0.1C51.9,48.3,52.1,48.3,52.2,48.2z"/>
			<path class="st4" d="M52.2,48.2c-0.2,0-0.3,0.1-0.5,0.1C51.9,48.3,52.1,48.3,52.2,48.2z"/>
			<path class="st5" d="M55.2,47.6c-0.2,0-0.5,0.1-0.7,0.1c-0.8,0.2-1.5,0.4-2.3,0.6c-0.2,0-0.3,0.1-0.5,0.1
				c-0.8,0.2-1.5,0.4-2.3,0.6c0,0-0.1,0-0.1,0c-0.7,0.2-1.5,0.4-2.2,0.7c-0.1,0-0.3,0.1-0.4,0.1c-0.8,0.2-1.5,0.5-2.3,0.7
				c-0.1,0.1-0.3,0.1-0.4,0.1c-0.6,0.2-1.2,0.4-1.8,0.6c-0.3,0.1-0.5,0.2-0.8,0.3c-0.3,0.1-0.5,0.2-0.8,0.3
				c-2.2,0.7-4.3,1.5-6.5,2.2c0,0,0,0,0,0L33,70c0,0,0,0,0,0c5.4-1.8,10.9-3.7,16.3-5.2l-1.1,16.1c2.7-0.7,5.4-1.4,8.1-1.8
				c5.1-4,8.7-10,9.1-16.8C66,55.3,62.7,46.8,55.2,47.6z"/>
			<path class="st4" d="M34.2,109c4.1-1.4,8.3-2.8,12.4-3.9v0C42.5,106.2,38.4,107.6,34.2,109z"/>
			<path class="st2" d="M34.2,109c-1.3,0.4-2.6,0.9-3.9,1.3l1.5-22l0.1-2.1l0,0c-4.1,1.3-8.2,2.6-12.2,3.5l-2.5,36.2
				c9.4-2.1,19-6.1,28.5-8.8l0.8-12.1C42.5,106.2,38.4,107.6,34.2,109z"/>
			<path class="st3" d="M33,70C33,70,33,70,33,70c-4.1,1.3-8.2,2.6-12.2,3.5l-1.1,16.1c4-0.9,8.1-2.2,12.2-3.5l0,0L33,70z"/>
			<path class="st5" d="M31.9,86.2L31.9,86.2L31.9,86.2C31.9,86.2,31.9,86.2,31.9,86.2L31.9,86.2l-0.2,2.1l-1.5,22
				c1.3-0.4,2.6-0.9,3.9-1.3c4.1-1.4,8.3-2.8,12.4-3.9l1.7-24.2C42.8,82.4,37.4,84.4,31.9,86.2z"/>
			<path class="st6" d="M48.3,80.9l1.1-16.1C43.9,66.3,38.5,68.2,33,70l-1.1,16.1C37.4,84.4,42.8,82.4,48.3,80.9z"/>
		</g>
	</g>
</g>
</svg>
