<?xml version="1.0" encoding="utf-8"?>
<!-- Generator: Adobe Illustrator 19.0.0, SVG Export Plug-In . SVG Version: 6.00 Build 0)  -->
<svg version="1.1" id="Layer_1" xmlns="http://www.w3.org/2000/svg" xmlns:xlink="http://www.w3.org/1999/xlink" x="0px" y="0px"
	 viewBox="0 0 229.3 229.3" style="enable-background:new 0 0 229.3 229.3;" xml:space="preserve">
<style type="text/css">
	.st0{fill:#FFFFFF;}
</style>
<path class="st0" d="M160.7,161.7c-3.3-4.9-4.9-10.3-4.9-16.2c0-7.9,2.1-14,6.2-18.3c4.1-4.3,11-7.5,20.6-9.4
	c6.3-1.3,14.4-2.1,24-2.6c0-0.1,0-0.2,0-0.3c0-14-3.1-27.2-8.7-39c-5.7,0.2-10.9,1.1-15.4,2.7c-5.5,1.8-9.8,3.9-13,6.2
	c-0.6,0.4-1.8,1.3-3.6,2.6c-1.8,1.2-3.3,1.9-4.5,1.9c-1,0-1.9-0.4-2.8-1.2c-0.8-0.8-1.2-1.8-1.2-3c0-2.8,2.6-5.7,7.7-8.8
	s10.7-5.5,16.8-7c3.8-1,7.6-1.7,11.4-2.1c-16.1-26.5-45.3-44.3-78.7-44.3c-50.8,0-92,41.2-92,92s41.2,92,92,92
	c27.2,0,51.6-11.8,68.5-30.6c-3.1-0.7-6.1-1.7-9-3.1C168.4,170.3,164,166.5,160.7,161.7z M57.5,92.7c-1.6,0.7-3.1,0.7-4.5-0.3
	c-1.4-1.1-1.7-2.6-1.4-4.2c0.1-0.7,0.3-1.4,0.7-2.1C57.4,72.6,66.6,62.4,79,55.7c14-7,28.2-8.4,42.8-3.9c3,0.9,4.7,3.1,4.3,5.4
	c-0.4,2.3-2.9,3.9-6,3.7c-0.9-0.1-1.8-0.2-2.7-0.6c-23.1-6.7-46.9,5.1-55.7,27.5C60.8,90,59.6,91.8,57.5,92.7z M134,169.7
	c-7.2,5.4-16.8,8-28.9,8c-6.2-0.5-11.8-1.3-17.6-2.9c-5.7-1.7-10.8-4-15.4-6.9c-2.9-1.9-4.9-3.5-5.9-4.7s-1.6-2.7-1.6-4.2
	c0-1,0.3-1.9,1.1-2.8c0.8-0.8,1.6-1.2,2.7-1.2c0.8,0,1.7,0.4,3,1.2c1.2,0.8,2.1,1.3,2.6,1.7c4.2,3.1,8.7,5.6,13.3,7.6s10.5,3,17.5,3
	c9.5,0,16.8-1.8,22-5.2c5.1-3.6,7.7-8.5,7.7-14.9c0-3.8-0.9-6.9-2.8-9.5c-1.8-2.5-4.8-4.7-9-6.5c-4.1-1.8-10.1-3.6-17.8-5.4
	c-12.9-2.9-22.1-6.7-27.6-11.1c-5.6-4.6-8.4-10.6-8.4-17.9c0-9,3.6-16.5,10.6-22.2c7.1-5.7,16.3-8.6,27.5-8.6
	c5.5,0,10.6,0.8,15.6,2.2s9.4,3.6,13.2,6.1c2.8,2,4.8,3.8,6,5.4c1.2,1.6,1.9,3.1,1.9,4.7c0,1-0.3,1.9-1.1,2.8
	c-0.8,0.8-1.6,1.2-2.7,1.2c-1.2,0-3.1-1.1-5.7-3.3c-3.8-2.9-7.8-5.4-11.9-7.2c-4.1-1.9-9.4-2.9-15.7-2.9c-8.2,0-14.8,1.9-19.8,5.8
	c-5,3.9-7.6,8.9-7.6,15.3c0,3.8,0.8,6.9,2.5,9.4c1.6,2.5,4.3,4.5,8.2,6.2s9.4,3.5,16.6,5c10.1,2.5,17.8,5,23.3,7.6s9.3,5.7,11.5,9.3
	s3.5,8.1,3.5,13.7C144.8,157.3,141.2,164.3,134,169.7z M110.7,90.3c-7.6-2.1-14.6,1.6-17.7,8.8c-0.8,2-1.8,2.7-3.5,2.2
	c-1.8-0.3-2.8-1.8-2.8-3.8c0-1,0.2-2,0.8-2.9c1.6-4.1,4.9-7.4,10.5-10.3c4.1-2,8.9-2.3,13.3-0.8c1.6,0.6,2.8,1.3,3.2,3.1
	C115.1,88.8,113.2,91,110.7,90.3z"/>
</svg>
