<?xml version="1.0" encoding="utf-8"?>
<!-- Generator: Adobe Illustrator 19.0.0, SVG Export Plug-In . SVG Version: 6.00 Build 0)  -->
<svg version="1.1" id="Layer_1" xmlns="http://www.w3.org/2000/svg" xmlns:xlink="http://www.w3.org/1999/xlink" x="0px" y="0px"
	 viewBox="0 0 1080 1080" style="enable-background:new 0 0 1080 1080;" xml:space="preserve">
<style type="text/css">
	.st0{fill:#F4E007;}
	.st1{fill:#FE1794;}
</style>
<g id="XMLID_1_">
	<g id="XMLID_5_">
		<path id="XMLID_15_" class="st0" d="M119.1,569.8c1.8,27.9,4.2,56,6.8,83.9c1.5,17.7-4.5,41.3,20,44.4c13.5,1.8,27-2.4,40.5-3.3
			c65.9-5,131.5-16.1,197.8-15.1c11.7,0,28.5,2.7,26.7-13.5c-6.2-59.6-15.8-119.9-15.7-179.8c0-39.3,13.5-80.3,45-105.4
			c12.6-10.2,24.6-18.3,40.2-24.2c4.2-1.8,8.1-3.3,12.3-4.8c16.5-6.3,33-7.2,50.6-7.2c23.1,0,27.3,0.9,27.9,1.2
			c6.6,2.7,15,3,22.5,5.7c4.5,1.5,9,3.3,13.5,5.1c8.1,3.3,16.2,7.5,23.4,12.6c19.2,13.8,30.8,25.5,42.5,46.2
			c22.7,40.8,15.8,88.4,12.2,132.1c-1.2,15.6-2.7,30.9-3.9,46.4c-1.8,20.1-6.9,39.8-6,59.9c0.9,14.7-1.5,20.1,14.7,22.5
			c20.1,3,40.7,4.2,61.1,6c40.1,3.6,80,7.3,119.8,12.1c19.5,2.4,39.5,7.2,59.3,4.2c12-1.8,20.7-8.7,21.9-21.3
			c1.8-16.8,3.3-33.3,4.8-49.7c3-33.3,5.1-66.5,6.7-99.8c1.8-37.5,2.8-75.2-2-112.4c-2.4-18.3-6-36.6-11.3-54.2
			c-16.4-52.4-46.1-101.9-82.6-142.7c-15.6-17.4-32.6-33.6-51.2-48c-9.3-7.2-18.9-14.1-28.7-20.4C735.8,116.7,675,95.3,613.9,85.7
			c-30-4.8-60.5-6.6-91.1-5.5c-82.4,2.9-166.6,27.4-235.3,73.5c-23.4,15.9-45,33.8-64.8,53.9c-53.4,54.2-90.9,122.8-102.3,198.3
			c-4.2,27-5.4,54.2-5.5,81.5C115,514.7,116.5,541.7,119.1,569.8z"/>
	</g>
	<path id="XMLID_3_" class="st1" d="M890.3,1000l-214.4-18.2c-18.7-1.6-32.6-18-31-36.8l12.5-146.9c1.6-18.7,18-32.6,36.8-31
		l214.4,18.2c18.7,1.6,32.6,18,31,36.8L927.1,969C925.5,987.7,909,1001.6,890.3,1000z"/>
	<path id="XMLID_4_" class="st1" d="M182.7,998.5l214.4-18.2c18.7-1.6,32.6-18,31-36.8l-12.5-146.9c-1.6-18.7-18-32.6-36.8-31
		l-214.4,18.2c-18.7,1.6-32.6,18-31,36.8L146,967.5C147.6,986.2,164,1000.1,182.7,998.5z"/>
</g>
</svg>
