<?xml version="1.0" encoding="utf-8"?>
<!-- Generator: Adobe Illustrator 19.0.0, SVG Export Plug-In . SVG Version: 6.00 Build 0)  -->
<svg version="1.1" id="Layer_1" xmlns="http://www.w3.org/2000/svg" xmlns:xlink="http://www.w3.org/1999/xlink" x="0px" y="0px"
	 viewBox="0 0 450 164.5" style="enable-background:new 0 0 450 164.5;" xml:space="preserve">
<style type="text/css">
	.st0{fill:#F37B6B;}
	.st1{fill:#293952;}
</style>
<g id="XMLID_36_">
	<g id="XMLID_166_">
		<path id="XMLID_182_" class="st0" d="M372.1,91.3V34.8h22.7c12.4,0,18.6,8.5,18.6,16.8c0,8.5-6.1,17-18.6,17h-17.3v6.7l32.6,37.2
			c1.2-1.3,2.5-3,3.9-5.1c2.8-4,4.5-6.1,5.1-6.3l-17.5-19.8c17.6-2.9,26.5-16,26.5-29.7c0-15.4-11.1-31-33.4-31h-37.3V88
			C363,89.3,367.9,90.4,372.1,91.3z"/>
		<polygon id="XMLID_181_" class="st0" points="50.8,67.9 17,20.7 5,20.7 5,117.9 19.8,117.9 19.8,49.4 46.6,87.2 54.9,87.2 
			81.7,49.4 81.7,117.9 96.3,117.9 96.3,20.7 84.6,20.7 		"/>
		<path id="XMLID_178_" class="st0" d="M176.6,117.9h15.8l-41.1-98.5h-10.8l-41.1,98.5h15.9c3.2-8.1,8.3-19.7,12.3-28.6h36.7
			L176.6,117.9z M133.2,76.1l12.9-34.3l12.6,34.3H133.2z"/>
		<path id="XMLID_177_" class="st0" d="M195.4,117.9h4.2c2.5-2.5,5-4.9,7.5-7.4c5.3-4.5,10.4-7.9,15.3-10l33-57.4
			c-0.3-2.1-0.5-6.3-0.8-8.4c-0.5-3.7-1.8-8.1-3.5-14.1h-60.3v13.8h52.7L195.4,117.9z"/>
		<g id="XMLID_171_">
			<path id="XMLID_176_" class="st1" d="M249.2,104.9c-2.4-1.9-5.5-2.8-9.3-2.8c-8.7,0-18.1,4.3-28.2,12.9c-8.1,8-16.3,16-24.4,24
				c-9.1,8.6-16.8,12.9-23,13c-4.3,0-6.7-2.9-7-8.8c-0.4-8,2.3-17.8,8.3-29.6c0.8-1.5,1.1-2.5,1.1-3.1c0-0.4-0.1-0.6-0.4-0.6
				c-0.9,0-1.8,0.7-2.6,2.2c-6.5,11.7-9.8,22.5-9.8,32.1c0,4.6,1.6,8.5,4.7,11.8c3.1,3.3,6.9,4.9,11.4,4.9
				c4.6-0.1,10.7-3.9,18.3-11.4c14.1-14.1,23.1-22.7,27-25.9c8.1-6.5,15.2-9.8,21.3-9.8c6,0,10.1,1.9,12.3,5.8
				c0.4,0.9,0.8,1.4,1.2,1.4c0.6,0,1.3-1.3,1.9-3.8c0.5-2.2,0.7-3.9,0.7-5.3C252.8,109.1,251.6,106.8,249.2,104.9z"/>
			<path id="XMLID_172_" class="st1" d="M442.6,102.2c-1.9-4.3-4.6-6.4-8.1-6.4c-4.3,0-8.3,3.5-12,10.5c-0.2-0.4-0.5-0.6-0.7-0.6
				c-0.6,0-2.3,2.1-5.2,6.2c-3,4.4-5.6,7.1-7.6,8c-3.3,1.4-6.8,2-10.5,2h-13.9c-11.1,0-16.7-1.4-16.9-4.2c-0.1-1.4,0.1-2.6,0.6-3.6
				c0.3-0.6,0.6-1.3,1-1.9c6.2-2.9,11-4.2,14.2-3.9c0.5,0.1,1.3-1.6,2.3-5c1-3.4,1.3-5.2,1-5.3c-7.3-1-18.9-3.5-34.9-7.5
				c-13.1-3.2-21.4-4.8-24.9-4.6c-5.4,0.3-9.8,2.4-13.2,6.5c-3.4,4-5.1,8.9-5.2,14.6c0,1.8,1.6,6.7,5,14.5
				c-2.9,0.3-6.3,0.4-10.2,0.4h-13c-3.1,0-6.3-1.8-9.5-5.4c-4.1-4.6-6.6-11-7.6-19.2c-0.6-7.1-1.2-14.2-1.7-21.3
				c-1.1-13-2.7-25.8-4.6-38.2c-1.1-7-2.8-14.4-5.1-22c-2.4-8.2-4.3-12.3-5.7-12.3c-0.3,0-0.5,0.1-0.6,0.4c-1,4-1.8,7.3-2.6,9.8
				c0,0.3,1,3.7,2.9,10.1c2.2,6.9,3.5,12.4,4.1,16.6c2.1,14,4,29.1,5.6,45.2c1.5,14.4,3,24.2,4.5,29.4c1.2,3.9,3.4,7.7,6.6,11.3
				c4,4.4,8.2,6.7,12.8,7v0.1h13.9c5.1,0,9.8-0.4,14.1-1.1c0.5,1.6,0.7,2.9,0.6,4.1c-0.2,1.7,0.2,2.5,1,2.5c0.4,0,0.8-0.4,1.2-1.1
				c0.9-1.7,1.3-3.8,1.3-6.2c8-1.7,16.5-4.5,25.6-8.5c6.8-3.2,13.5-6.5,20.3-9.7c-1.7,2.8-2.6,6.7-2.6,11.8c0,1.9,0.3,3.2,0.8,4
				c1.4,1.9,3.4,3.1,6.2,3.7c2.1,0.4,6.4,0.6,12.9,0.6h13.9c5.4,0,10-2.3,14-6.8c1.1-1.2,3.2-4.4,6.3-9.7c2.2,2.9,5.6,5.5,10.3,7.9
				c4.1,2,7.2,3,9.3,3c1.8,0,3.5-1.3,4.9-4c1.2-2.5,1.9-5.1,1.9-7.9C445,110.4,444.2,105.8,442.6,102.2z M319.3,120.6
				c-2.8-6.7-5-11.5-6.6-14.3c-0.1-0.3-0.2-0.6-0.2-0.9c0-1.5,0.9-3.1,2.6-4.8c1.8-1.8,3.5-2.7,5.1-2.9c1.6-0.2,3.3-0.2,5-0.2
				c5.6,0,12.4,1.1,20.3,3.4c9.1,2.7,15,4.1,17.8,4.5C348.6,112.9,333.9,118,319.3,120.6z M430.5,112.4c-0.3-0.2-1.7-1.4-4.1-3.7
				c1.3-1.2,3.1-1.8,5.4-1.8c1.2,0,2.3,0.8,3.4,2.4c1.1,1.6,1.6,3.4,1.7,5.3C434.3,114.4,432.3,113.7,430.5,112.4z"/>
		</g>
		<g id="XMLID_167_">
			<path id="XMLID_168_" class="st0" d="M311.5,19.4h-10.8l-24.3,58.3l0,0c0,0,0.8,18.2,4.3,27.3c0,0.1,0.1,0.1,0.1,0.2
				c2.3-5.5,4.8-11.1,7-15.9h21c0.4-0.5,0.8-1.1,1.2-1.6c3.4-4.1,7.9-6.2,13.4-6.5c2.5-0.1,7.5,0.6,14.8,2.2L311.5,19.4z
				 M293.4,76.1l12.9-34.3l12.6,34.3H293.4z"/>
		</g>
	</g>
</g>
</svg>
